<svg width="115" height="107" viewBox="0 0 115 107" fill="none" xmlns="http://www.w3.org/2000/svg">
<path d="M98.356 42.9416C96.9022 36.2666 94.0194 29.9859 89.906 24.5316C85.8444 19.0551 80.4738 14.6851 74.286 11.8216C72.0384 10.7931 69.6933 9.99241 67.286 9.43156C64.8694 8.84772 62.407 8.47301 59.926 8.31156C51.082 7.75711 42.2634 9.73801 34.506 14.0216C26.6255 18.1611 20.1518 24.5478 15.906 32.3716C12.414 39.4593 10.6753 47.282 10.836 55.1816C10.9482 60.1978 11.8875 65.1612 13.616 69.8716C15.3334 74.5536 17.8621 78.8967 21.086 82.7016C23.086 85.0416 22.376 85.2916 20.016 83.7516C19.297 83.3024 18.6267 82.7796 18.016 82.1916L16.896 81.1016L16.296 80.4916L15.736 79.8116C14.8866 78.8175 14.1176 77.7575 13.436 76.6416C13.076 76.0416 12.716 75.4216 12.346 74.7716C11.976 74.1216 11.716 73.4216 11.406 72.7116C10.3487 70.1931 9.51544 67.5864 8.91604 64.9216C8.66604 63.5816 8.38604 62.2416 8.22604 60.9216C8.06604 59.6016 7.87604 58.2216 7.87604 56.8616C7.64876 51.4284 8.25238 45.9925 9.66604 40.7416C10.3984 38.131 11.3209 35.5775 12.426 33.1016C13.5505 30.6011 14.9383 28.2277 16.566 26.0216C19.7881 21.6067 23.7539 17.7864 28.286 14.7316C33.7244 10.993 39.8012 8.28167 46.216 6.73156C52.7219 5.18321 59.4844 5.05021 66.046 6.34156C73.2512 7.75969 79.96 11.0382 85.506 15.8516C91.016 20.6392 95.3452 26.6351 98.156 33.3716C99.9059 37.4745 101.116 41.7872 101.756 46.2016C103.357 57.399 101.001 68.8041 95.096 78.4516C91.5986 84.2236 86.886 89.1648 81.286 92.9316C72.626 98.7816 62.136 101.122 51.896 100.672C50.756 100.612 49.646 100.522 48.516 100.442C47.386 100.362 46.286 100.192 45.156 100.002C42.195 99.5575 39.2867 98.8137 36.476 97.7816C35.7307 97.4905 35.0028 97.1566 34.296 96.7816C33.8182 96.4967 33.3723 96.1615 32.966 95.7816C32.6307 95.5125 32.3196 95.2147 32.036 94.8916C31.766 94.4916 32.476 94.4716 33.936 94.7916L40.566 96.3716C49.176 98.2516 58.436 98.6416 67.186 96.2816C76.0439 93.9753 83.9016 88.8293 89.556 81.6316C93.7713 76.2409 96.7515 69.9904 98.286 63.3216C99.8111 56.6239 99.8111 49.6692 98.286 42.9716L98.356 42.9416Z" fill="white"/>
<path d="M34.506 83.9116C30.776 87.6516 27.016 91.3816 23.106 94.9816C21.676 96.3016 20.276 97.6416 18.776 98.8916C16.1528 101.197 13.2858 103.209 10.226 104.892C8.59555 105.813 6.75885 106.309 4.88604 106.332C3.87099 106.329 2.87435 106.06 1.99604 105.552C1.53672 105.267 1.13844 104.895 0.8243 104.455C0.510157 104.016 0.28641 103.518 0.166039 102.992C-0.131194 101.355 -0.0282708 99.6701 0.466038 98.0816C0.882139 96.5846 1.41717 95.1233 2.06604 93.7116C3.61807 90.0753 5.8132 86.7487 8.54604 83.8916C9.48604 83.0416 9.75604 83.6416 9.54604 84.7616C9.13723 86.4176 8.43258 87.9861 7.46604 89.3916C6.4232 90.9654 5.47808 92.6018 4.63604 94.2916C3.78533 95.9205 3.1147 97.6373 2.63604 99.4116C2.22604 101.102 2.25604 102.852 3.04604 103.412C3.59893 103.818 4.26982 104.032 4.95604 104.022C5.78487 104.058 6.61302 103.936 7.39604 103.662C9.54093 102.858 11.5456 101.72 13.336 100.292C15.246 98.8816 17.076 97.2916 18.876 95.7216C22.816 92.2316 26.606 88.5116 30.366 84.7216L37.266 77.7216C40.746 74.1816 44.266 70.6616 47.846 67.2416C50.5449 64.5176 53.4212 61.9754 56.456 59.6316C57.1507 59.1158 57.8753 58.6416 58.626 58.2116C61.536 56.6116 63.186 56.9316 63.746 57.6816C63.8887 57.8395 64.0006 58.0226 64.076 58.2216C64.076 58.5016 63.826 58.6216 63.376 58.7416C62.6703 58.9231 61.9812 59.164 61.316 59.4616C59.8885 60.1578 58.5462 61.0169 57.316 62.0216C55.986 63.0216 54.696 64.1416 53.406 65.3016C50.816 67.6216 48.286 70.1016 45.756 72.5916C42.016 76.3216 38.286 80.1016 34.556 83.9516L34.506 83.9116Z" fill="white"/>
<path d="M59.736 47.7716L60.166 48.2816L60.516 48.6516L60.996 49.1316C61.0096 49.4661 60.9895 49.8011 60.936 50.1316C60.876 50.2916 60.806 50.4616 60.736 50.6216L60.436 51.0716C60.15 51.4264 59.8392 51.7605 59.506 52.0716C59.4185 52.1399 59.338 52.217 59.266 52.3016C59.206 52.3016 59.266 52.4116 59.266 52.4316C59.3216 52.4698 59.3888 52.4875 59.456 52.4816C59.602 52.5016 59.7501 52.5016 59.896 52.4816C60.0542 52.4758 60.2115 52.4557 60.366 52.4216C61.0538 52.2904 61.7247 52.0824 62.366 51.8016C63.6956 51.1975 64.9733 50.4851 66.186 49.6716C67.696 48.6716 69.186 47.5416 70.556 46.4016C73.076 44.4016 75.486 42.2316 77.816 39.9816C80.163 37.774 82.3268 35.3795 84.286 32.8216C84.7081 32.3654 84.9781 31.7894 85.0587 31.1732C85.1393 30.557 85.0266 29.9309 84.736 29.3816C84.266 28.3816 82.736 28.8316 81.566 29.3816C79.9665 30.2054 78.4553 31.1905 77.056 32.3216C75.616 33.4316 74.216 34.6016 72.816 35.7716C71.096 37.2716 72.036 34.0616 75.446 31.3416C76.9549 30.1131 78.5753 29.0284 80.286 28.1016C81.2476 27.5686 82.3041 27.2289 83.396 27.1016C84.1168 27.0642 84.8269 27.2878 85.396 27.7316C85.9111 28.1815 86.2831 28.7725 86.466 29.4316C86.6233 30.0197 86.661 30.6333 86.5768 31.2362C86.4927 31.8392 86.2884 32.419 85.976 32.9416C85.4864 33.8161 84.9209 34.646 84.286 35.4216C82.986 36.8916 81.656 38.2616 80.286 39.6016C76.9932 42.9086 73.5071 46.0174 69.846 48.9116C68.1732 50.2095 66.4048 51.3795 64.556 52.4116C63.604 52.9454 62.5984 53.3778 61.556 53.7016C61.0099 53.8714 60.4463 53.9787 59.876 54.0216C59.7233 54.0415 59.5687 54.0415 59.416 54.0216C59.2246 54.0194 59.0337 53.9993 58.846 53.9616C58.4751 53.8522 58.1166 53.7048 57.776 53.5216C57.5046 53.3521 57.3107 53.0827 57.236 52.7716C57.2186 52.4524 57.3142 52.1373 57.506 51.8816C57.7061 51.5966 57.9376 51.3349 58.196 51.1016L58.726 50.5916C58.9261 50.4443 59.1135 50.2804 59.286 50.1016C59.356 49.9916 59.456 49.8216 59.356 49.7116L59.106 49.4416L58.666 48.9316C58.3738 48.5807 58.1064 48.2098 57.866 47.8216C57.5881 47.3959 57.3852 46.9258 57.266 46.4316C57.1885 46.1286 57.195 45.8102 57.2848 45.5107C57.3747 45.2112 57.5445 44.9418 57.776 44.7316C58.0457 44.6306 58.3287 44.57 58.616 44.5516C58.8556 44.532 59.0964 44.532 59.336 44.5516C59.7596 44.5774 60.1808 44.6342 60.596 44.7216C60.906 44.7916 61.206 44.8716 61.516 44.9616L61.916 45.0816L62.146 45.1716C62.226 45.2316 62.266 45.1016 62.326 45.0716L62.536 44.8716L63.176 44.2316L65.246 42.2316L64.246 41.7416L62.686 40.9116C61.6555 40.3458 60.6542 39.7284 59.686 39.0616C59.0711 38.634 58.5015 38.1448 57.986 37.6016C57.6803 37.3231 57.4382 36.982 57.276 36.6016C57.19 36.3746 57.1688 36.1281 57.2147 35.8897C57.2606 35.6513 57.3719 35.4304 57.536 35.2516C57.9936 34.7768 58.5491 34.4075 59.1639 34.1691C59.7787 33.9308 60.438 33.8293 61.096 33.8716C62.2607 33.8842 63.4233 33.9744 64.576 34.1416C65.376 34.2416 66.156 34.3416 66.956 34.4616C69.956 34.9116 70.816 35.1416 71.386 35.6616C71.5214 35.7685 71.6484 35.8855 71.766 36.0116C72.006 36.3816 70.766 36.4816 68.576 36.2416C66.776 36.0416 64.956 35.7816 63.166 35.5916C62.3032 35.4915 61.4334 35.4647 60.566 35.5116C60.2031 35.5343 59.8457 35.6118 59.506 35.7416C59.361 35.8023 59.2235 35.8795 59.096 35.9716L58.906 36.1116L58.826 36.2016L58.936 36.3416C59.0279 36.4556 59.1282 36.5625 59.236 36.6616C59.7458 37.1306 60.2944 37.5554 60.876 37.9316C62.128 38.7207 63.4197 39.445 64.746 40.1016L66.086 40.7716L67.916 41.6316L63.286 46.2916L62.866 46.7116C62.716 46.8416 62.596 47.0616 62.396 46.9116L61.286 46.5316C60.9577 46.4213 60.6239 46.3278 60.286 46.2516C59.9572 46.1753 59.6228 46.1251 59.286 46.1016H58.896C58.896 46.1016 58.896 46.2616 58.996 46.3616C59.2298 46.837 59.5184 47.2834 59.856 47.6916L59.736 47.7716Z" fill="white"/>
<path d="M77.586 51.6116C77.7573 51.0006 77.8678 50.3742 77.916 49.7416C77.986 49.0716 78.016 48.3816 78.036 47.7416C78.036 47.2416 78.036 46.7416 78.036 46.2316C78.036 45.3616 78.036 44.4016 77.956 43.6216C77.9696 43.4318 77.9696 43.2413 77.956 43.0516C77.9458 42.94 77.9257 42.8296 77.896 42.7216C77.896 42.7216 77.836 42.6016 77.786 42.6116C77.751 42.64 77.7206 42.6737 77.696 42.7116C77.596 42.8416 77.496 43.0116 77.386 43.1716C77.3331 43.2661 77.2729 43.3564 77.206 43.4416C77.0739 43.6175 76.9302 43.7845 76.776 43.9416C76.5824 44.1556 76.368 44.3499 76.136 44.5216C75.9346 44.6893 75.7243 44.8462 75.506 44.9916C75.0769 45.303 74.6098 45.5584 74.116 45.7516C73.976 45.7516 73.796 45.7516 73.826 45.5816C73.7869 45.5611 73.7552 45.5288 73.7355 45.4893C73.7157 45.4499 73.7089 45.4051 73.716 45.3616C73.7014 45.2554 73.7014 45.1477 73.716 45.0416C73.7364 44.7836 73.8121 44.533 73.9381 44.3069C74.0641 44.0808 74.2373 43.8846 74.446 43.7316C74.8335 43.478 75.2073 43.2043 75.566 42.9116C75.7242 42.7728 75.8682 42.6187 75.996 42.4516C76.286 42.1016 76.586 41.6016 76.866 41.1816C76.9802 40.9707 77.1214 40.7758 77.286 40.6016C77.4022 40.5354 77.5266 40.485 77.656 40.4516C77.876 40.4516 78.036 40.2216 78.366 40.4516C78.4984 40.5051 78.6177 40.5863 78.716 40.6898C78.8143 40.7933 78.8894 40.9167 78.936 41.0516C79.0836 41.4547 79.181 41.8746 79.226 42.3016C79.376 43.5916 79.366 44.0016 79.426 44.7116C79.486 45.4216 79.516 46.0216 79.516 46.7116C79.5307 48.1801 79.4337 49.6477 79.226 51.1016C79.1595 51.5924 79.0213 52.0708 78.816 52.5216C78.7032 52.8189 78.5016 53.0744 78.2387 53.2533C77.9757 53.4322 77.6641 53.5258 77.346 53.5216C76.9091 53.4516 76.5042 53.2492 76.186 52.9416C75.9191 52.6974 75.6748 52.4297 75.456 52.1416C75.0508 51.5868 74.6834 51.0055 74.356 50.4016C73.8263 49.4984 73.3747 48.5516 73.006 47.5716C72.9195 47.3469 72.8493 47.1163 72.796 46.8816C72.586 45.9916 72.856 45.4116 73.346 45.4016C73.4475 45.3961 73.5483 45.4204 73.636 45.4716C73.836 45.7616 74.016 45.7516 74.116 46.2016C74.628 47.804 75.3581 49.3284 76.286 50.7316C76.4532 50.9835 76.637 51.224 76.836 51.4516C76.9819 51.6129 77.1426 51.7603 77.316 51.8916V51.8916C77.316 51.8916 77.406 51.8016 77.476 51.5816L77.586 51.6116Z" fill="white"/>
<path d="M62.206 51.4616C61.9983 51.718 61.752 51.9407 61.476 52.1216C61.2896 52.2367 61.0875 52.3243 60.876 52.3816C60.464 52.4815 60.0387 52.5152 59.616 52.4816C59.336 52.4816 58.946 52.0716 59.116 51.7816L59.976 50.4216L60.046 50.3316V50.2516C60.0937 50.1809 60.1371 50.1074 60.176 50.0316C60.2052 49.9889 60.2233 49.9397 60.2286 49.8883C60.2339 49.8369 60.2262 49.785 60.2064 49.7373C60.1865 49.6896 60.155 49.6476 60.1148 49.6152C60.0746 49.5827 60.0269 49.5609 59.976 49.5516C59.976 49.5516 59.916 49.5516 59.886 49.5016H59.836L59.646 49.3716C59.386 49.1916 59.116 49.0116 58.836 48.8016C58.6709 48.6822 58.5139 48.5519 58.366 48.4116C58.2624 48.315 58.1655 48.2114 58.076 48.1016C58.0054 48.017 57.9418 47.9267 57.886 47.8316C57.8395 47.7726 57.7993 47.7089 57.766 47.6416C57.766 47.5216 57.666 47.4016 57.626 47.2816V47.1016C57.6103 46.952 57.6103 46.8012 57.626 46.6516C57.6355 46.2989 57.7353 45.9546 57.916 45.6516C58.1203 45.3082 58.4188 45.0305 58.776 44.8516C58.931 44.7709 59.0957 44.7104 59.266 44.6716H59.496H59.596C59.7755 44.6518 59.9566 44.6518 60.136 44.6716C60.2647 44.6878 60.3918 44.7145 60.516 44.7516C60.6536 44.7674 60.7864 44.8117 60.906 44.8816C61.2725 45.0715 61.658 45.2224 62.056 45.3316L62.316 45.4016H62.386L63.126 44.7016C63.666 44.1616 64.196 43.5916 64.686 43.0116L65.376 42.1516L65.066 42.0116L64.556 41.8016L64.056 41.6016L63.516 41.3516L62.596 40.8916C61.9094 40.5477 61.2418 40.1671 60.596 39.7516C60.0955 39.4274 59.6528 39.0218 59.286 38.5516C59.1603 38.3937 59.0466 38.2266 58.946 38.0516C58.8921 37.9655 58.8453 37.8752 58.806 37.7816C58.7523 37.6621 58.7088 37.5384 58.676 37.4116C58.6208 37.247 58.5904 37.0751 58.586 36.9016C58.566 36.7021 58.566 36.5011 58.586 36.3016C58.6476 35.9649 58.7768 35.6441 58.9658 35.3588C59.1549 35.0735 59.3999 34.8295 59.686 34.6416C59.9299 34.4804 60.1961 34.3558 60.476 34.2716C60.9699 34.1294 61.4822 34.062 61.996 34.0716C62.396 34.0716 62.756 34.0716 63.106 34.1316C63.806 34.1916 64.476 34.2716 65.106 34.3516C65.5367 34.4414 65.979 34.4616 66.416 34.4116C68.1853 34.4843 69.9451 34.7084 71.676 35.0816H71.726C71.8346 35.0519 71.9388 35.0082 72.036 34.9516C72.2532 34.8262 72.4635 34.6893 72.666 34.5416C72.996 34.3216 73.476 33.9216 73.906 33.5416L75.256 32.4816C76.177 31.7651 77.135 31.0975 78.126 30.4816C78.3945 30.265 78.704 30.1051 79.036 30.0116C79.8218 29.859 80.5803 29.5893 81.286 29.2116C82.3288 28.717 83.4899 28.5264 84.636 28.6616C85.2506 28.7772 85.8077 29.098 86.216 29.5716C86.586 29.9416 86.046 30.1916 85.906 30.1816C85.456 30.1216 85.656 30.5016 85.566 30.6816C85.5376 30.7493 85.5007 30.8132 85.456 30.8716C85.3935 30.8861 85.3285 30.8861 85.266 30.8716H85.086H84.836C84.3694 30.9093 83.9161 31.0457 83.506 31.2716C82.7157 31.7495 81.9635 32.2878 81.256 32.8816C81.256 32.8816 80.846 33.1816 80.256 33.6216C79.666 34.0616 78.956 34.7016 78.256 35.3916C77.556 36.0816 76.786 36.8316 76.166 37.4716C75.636 38.0169 75.0456 38.5001 74.406 38.9116C73.7128 39.3312 72.9164 39.5494 72.106 39.5416C71.7346 39.5689 71.3611 39.5453 70.996 39.4716C70.626 39.4116 69.206 39.2016 67.806 39.0516C66.406 38.9016 65.086 38.7916 64.976 38.7916C64.356 38.7916 63.736 38.7916 63.156 38.7916H62.286C62.183 38.8029 62.0791 38.8029 61.976 38.7916H61.886C61.886 38.7916 61.886 38.8516 61.886 38.6916C61.8481 38.4747 61.7946 38.2608 61.726 38.0516C61.726 37.9016 61.636 37.7616 61.596 37.6216C61.5525 37.4942 61.499 37.3705 61.436 37.2516C61.4038 37.1558 61.3528 37.0674 61.286 36.9916C61.216 36.9116 61.226 36.8816 61.166 36.8416C61.106 36.8016 61.086 36.8416 61.166 36.8416C61.2331 36.836 61.298 36.8155 61.356 36.7816V36.7816L61.876 36.4916L61.966 36.4416C62.258 36.2427 62.5235 36.0075 62.756 35.7416C62.756 35.7416 62.756 35.7416 62.846 35.7416L63.286 35.9916C63.656 36.1816 64.116 36.3816 64.636 36.5916L65.506 36.9916L66.216 37.3316L67.046 37.7516L67.526 38.0016C67.766 38.1316 67.976 38.2716 68.206 38.4116C69.0633 38.9239 69.757 39.6696 70.206 40.5616C70.3966 41.0096 70.4822 41.4954 70.456 41.9816C70.454 42.2217 70.4065 42.4592 70.316 42.6816C70.2488 42.9213 70.1549 43.1528 70.036 43.3716C69.8665 43.7059 69.6473 44.0127 69.386 44.2816C69.2367 44.4708 69.0764 44.6511 68.906 44.8216L68.506 45.2516C67.5115 46.2567 66.4344 47.1766 65.286 48.0016L64.816 48.3316C64.756 48.3916 64.596 48.4616 64.476 48.5516L64.096 48.7916C63.8334 48.9132 63.5628 49.0167 63.286 49.1016C62.9948 49.1516 62.6972 49.1516 62.406 49.1016C61.016 48.8816 60.546 48.5516 59.856 48.4616H59.636C59.636 48.4616 59.556 48.4616 59.526 48.4616L59.596 48.1816C59.7591 47.6994 59.8204 47.1886 59.776 46.6816C59.809 46.6889 59.8431 46.6889 59.876 46.6816L60.226 46.5016C60.3945 46.397 60.5549 46.28 60.706 46.1516L61.006 45.9116C61.086 45.8316 61.226 45.6916 61.186 45.7416L61.286 45.8616C61.456 46.0416 61.726 46.2716 61.996 46.5116L62.216 46.7116C62.3234 46.8039 62.4237 46.9042 62.516 47.0116C62.726 47.2016 62.886 47.4016 63.046 47.5716C63.1943 47.7767 63.3248 47.9942 63.436 48.2216C63.5196 48.3684 63.5899 48.5223 63.646 48.6816C63.6948 48.9556 63.6881 49.2367 63.6262 49.5081C63.5644 49.7795 63.4487 50.0357 63.286 50.2616C62.9735 50.7019 62.6111 51.1046 62.206 51.4616Z" fill="white"/>
<path d="M37.546 4.72157C38.4614 3.72422 39.5836 2.93896 40.8342 2.42076C42.0848 1.90255 43.4336 1.66392 44.786 1.72157C45.926 1.78157 47.326 0.101569 45.656 0.0215686C43.7754 -0.086895 41.8937 0.214643 40.1411 0.905308C38.3886 1.59597 36.807 2.65926 35.506 4.02157C34.426 5.09157 36.806 5.41157 37.506 4.68157L37.546 4.72157Z" fill="white"/>
<path d="M104.956 36.2616C106.164 37.3219 107.033 38.7137 107.456 40.264C107.879 41.8143 107.837 43.4548 107.336 44.9816C106.926 46.0716 108.956 46.0516 109.266 45.2116C109.876 43.5121 109.968 41.6698 109.53 39.9181C109.092 38.1663 108.144 36.584 106.806 35.3716C106.146 34.7416 104.236 35.5816 104.956 36.2616V36.2616Z" fill="white"/>
<path d="M109.906 32.6716C110.82 33.2056 111.566 33.9854 112.06 34.9223C112.553 35.8592 112.773 36.9156 112.696 37.9716C112.696 38.8616 114.696 38.4816 114.696 37.7416C114.789 36.5233 114.536 35.3036 113.966 34.2227C113.397 33.1418 112.533 32.2437 111.476 31.6316C110.866 31.2416 109.016 32.1016 109.866 32.6316L109.906 32.6716Z" fill="white"/>
<path d="M34.726 29.7216C34.926 32.3916 29.836 32.5616 30.296 29.4216C30.606 27.2216 34.016 27.0816 34.636 29.2416C34.6835 29.3978 34.7137 29.5588 34.726 29.7216V29.7216Z" fill="white"/>
<path d="M24.666 39.2916C24.786 40.8816 21.736 40.9916 22.006 39.1016C22.0739 38.8143 22.234 38.5571 22.462 38.3695C22.6899 38.1819 22.973 38.0742 23.268 38.0629C23.563 38.0515 23.8536 38.1372 24.0952 38.3067C24.3369 38.4763 24.5163 38.7203 24.606 39.0016C24.6356 39.096 24.6557 39.1932 24.666 39.2916V39.2916Z" fill="white"/>
<path d="M74.066 87.7816C74.186 89.3816 71.126 89.4816 71.406 87.5916C71.4739 87.3043 71.634 87.0472 71.862 86.8595C72.0899 86.6719 72.373 86.5642 72.668 86.5529C72.963 86.5415 73.2536 86.6272 73.4952 86.7967C73.7369 86.9663 73.9163 87.2104 74.006 87.4916C74.0346 87.5863 74.0547 87.6833 74.066 87.7816Z" fill="white"/>
</svg>
